HIERARCHY
ROOT Hips
{
	OFFSET -0.179506 -22.333345 2.821913
	CHANNELS 6 Xposition Yposition Zposition Zrotation Yrotation Xrotation 
	JOINT LeftUpLeg
	{
		OFFSET 6.951974 -9.140623 -0.681533
		CHANNELS 3 Zrotation Yrotation Xrotation
		JOINT LeftLeg
		{
			OFFSET 3.427654 -37.519855 -0.449580
			CHANNELS 3 Zrotation Yrotation Xrotation
			JOINT LeftFoot
			{
				OFFSET -1.359570 -39.796059 -4.369333
				CHANNELS 3 Zrotation Yrotation Xrotation
				JOINT LeftToe
				{
					OFFSET 2.635814 -5.579078 11.928840
					CHANNELS 3 Zrotation Yrotation Xrotation
					End Site
					{
						OFFSET 0.000000 0.000000 0.000000
					}
				}
			}
		}
	}
	JOINT RightUpLeg
	{
		OFFSET -6.767048 -9.052170 -0.431982
		CHANNELS 3 Zrotation Yrotation Xrotation
		JOINT RightLeg
		{
			OFFSET -3.829005 -38.256897 -0.885003
			CHANNELS 3 Zrotation Yrotation Xrotation
			JOINT RightFoot
			{
				OFFSET 1.577377 -39.841461 -4.231180
				CHANNELS 3 Zrotation Yrotation Xrotation
				JOINT RightToe
				{
					OFFSET -2.537174 -4.814398 12.334795
					CHANNELS 3 Zrotation Yrotation Xrotation
					End Site
					{
						OFFSET 0.000000 0.000000 0.000000
					}
				}
			}
		}
	}
	JOINT Spine
	{
		OFFSET -0.253288 10.896323 -2.669631
		CHANNELS 3 Zrotation Yrotation Xrotation
		JOINT Spine1
		{
			OFFSET 0.548704 13.518043 0.109247
			CHANNELS 3 Zrotation Yrotation Xrotation
			JOINT Spine2
			{
				OFFSET 0.145701 5.292222 2.542457
				CHANNELS 3 Zrotation Yrotation Xrotation
				JOINT Neck
				{
					OFFSET -0.277840 21.387037 -4.285703
					CHANNELS 3 Zrotation Yrotation Xrotation
					JOINT Head
					{
						OFFSET 0.515184 6.496960 5.134897
						CHANNELS 3 Zrotation Yrotation Xrotation
						End Site
						{
							OFFSET 0.000000 0.000000 0.000000
						}
					}
				}
				JOINT LeftShoulder
				{
					OFFSET 7.884473 12.174932 -3.408961
					CHANNELS 3 Zrotation Yrotation Xrotation
					JOINT LeftArm
					{
						OFFSET 9.097692 3.046888 -0.886815
						CHANNELS 3 Zrotation Yrotation Xrotation
						JOINT LeftForeArm
						{
							OFFSET 25.961220 -1.277207 -2.745643
							CHANNELS 3 Zrotation Yrotation Xrotation
							JOINT LeftHand
							{
								OFFSET 24.923361 0.898606 -0.117091
								CHANNELS 3 Zrotation Yrotation Xrotation
								End Site
								{
									OFFSET 0.000000 0.000000 0.000000
								}
							}
						}
					}
				}
				JOINT RightShoulder
				{
					OFFSET -8.175920 11.883285 -3.861528
					CHANNELS 3 Zrotation Yrotation Xrotation
					JOINT RightArm
					{
						OFFSET -9.601238 3.255117 -0.914307
						CHANNELS 3 Zrotation Yrotation Xrotation
						JOINT RightForeArm
						{
							OFFSET -25.374195 -1.332924 -2.140099
							CHANNELS 3 Zrotation Yrotation Xrotation
							JOINT RightHand
							{
								OFFSET -25.529810 0.777228 -0.555919
								CHANNELS 3 Zrotation Yrotation Xrotation
								End Site
								{
									OFFSET 0.000000 0.000000 0.000000
								}
							}
						}
					}
				}
			}
		}
	}
}
MOTION
Frames: 12
Frame Time: 0.033333
18.020617 63.372398 94.906479 -65.714636 2.782953 77.027675 6.476192 3.336490 -7.001098 -6.251253 11.687190 37.712543 -2.287398 1.514965 -22.202392 nan nan nan -8.170421 -10.411262 1.882814 -1.710271 -16.066710 30.095343 8.059873 -0.916965 -17.622776 nan nan nan 0.235523 5.037711 14.869027 2.674549 -3.326165 5.513006 -1.596472 2.630933 0.984403 -0.067299 -15.463617 9.877034 4.494781 -27.112757 17.525315 -8.458616 -8.486956 -7.090706 -70.997647 -32.941252 29.744181 -30.828521 -85.376722 54.317542 12.874171 -31.086949 -41.705577 11.563031 2.462088 -4.087737 42.269176 7.306267 -10.133889 -70.480873 37.708027 -62.642449 -5.504285 18.791972 -24.262998 
18.226505 63.494576 94.737968 -65.075141 2.510044 77.379264 7.236775 3.251723 -8.071709 -6.496470 12.199340 39.464938 -2.516134 1.536162 -23.052361 nan nan nan -8.503502 -10.434949 1.340665 -1.370670 -15.610391 30.332784 7.724170 -1.324210 -18.461295 nan nan nan 0.193830 5.002624 14.673852 2.975078 -3.426654 5.498759 -1.438967 2.351231 1.049743 -0.128551 -15.797862 9.772112 4.393653 -27.032465 17.573588 -8.700503 -9.142504 -6.975282 -71.129437 -33.803382 30.068639 -23.896263 -85.185533 47.630816 13.117714 -31.067522 -42.210495 11.464072 2.751015 -3.924333 41.137523 7.152495 -10.520592 -68.717789 37.436573 -61.498380 -5.514556 18.468982 -25.280301 
18.380068 63.603653 94.583107 -64.519149 2.346176 77.587293 8.168459 3.301621 -8.852254 -6.343354 12.672664 41.160698 -2.530946 1.615264 -24.004628 nan nan nan -8.781440 -10.582496 0.972337 -1.017953 -15.206237 30.628245 7.305803 -1.524637 -19.297374 nan nan nan 0.118553 4.929061 14.298133 3.389596 -3.590868 6.050678 -1.241683 2.057585 0.798625 -0.262830 -16.062106 9.655670 4.113587 -26.952435 17.704063 -8.951517 -9.841530 -6.858065 -71.166064 -34.547988 30.350993 -16.428201 -85.206073 40.370768 13.023380 -30.875997 -42.154307 11.795500 3.307803 -3.875298 39.575814 7.601763 -11.208744 -67.217968 36.551780 -60.926296 -4.073689 18.381326 -24.727247 
18.517420 63.702408 94.439766 -64.071288 2.228712 77.750416 9.219739 3.329455 -9.413562 -5.933465 13.152938 42.698496 -2.420838 1.798848 -24.876091 nan nan nan -9.006979 -10.623913 0.686914 -0.632786 -14.976043 30.886763 6.802952 -1.755283 -20.044369 nan nan nan 0.017426 4.905256 13.840032 3.759729 -3.724132 6.715470 -1.003232 1.728071 0.554470 -0.299399 -16.165932 9.679054 3.979016 -26.833894 17.676016 -9.067611 -10.601280 -6.632552 -71.114741 -35.259854 30.626418 -6.641745 -85.526549 30.318382 12.602032 -30.725877 -41.084423 11.806692 3.830556 -3.733664 38.428933 7.780780 -11.574452 -65.699538 35.905193 -60.331306 -3.516611 18.215230 -24.715156 
18.620083 63.824375 94.299278 -63.674415 2.107736 77.859465 10.363815 3.515302 -9.785918 -5.427949 13.406143 44.079277 -2.441054 1.866157 -25.673863 nan nan nan -9.196926 -10.823794 0.494324 -0.354052 -14.853681 31.081481 6.354255 -2.008978 -20.786357 nan nan nan -0.159277 4.911581 13.615080 4.099543 -3.875936 6.986868 -0.747103 1.451820 0.438765 -0.186218 -16.024200 9.651643 3.881325 -26.861946 17.735369 -8.896337 -11.185939 -6.526157 -71.201817 -36.087698 30.816159 0.744834 -85.652195 23.215938 12.449671 -30.802254 -40.828593 11.863825 4.218885 -3.609993 37.406820 7.989860 -11.975070 -64.303578 35.490984 -59.149098 -3.222466 18.174696 -24.914571 
18.685251 63.951870 94.162071 -63.379799 1.921530 77.859415 11.484097 3.900111 -9.878297 -4.814108 13.494648 45.218688 -2.566258 1.937712 -26.255650 nan nan nan -9.469318 -11.190671 0.446444 -0.213138 -14.875530 31.169960 6.032976 -2.212145 -21.529379 nan nan nan -0.466774 4.759441 13.730734 4.338856 -4.098523 6.865022 -0.494860 1.422732 0.346633 -0.132168 -15.820352 9.786801 3.890158 -26.884360 17.773127 -8.490646 -11.562747 -6.530023 -71.242569 -37.009040 30.757619 2.525357 -85.718321 22.220542 12.554570 -30.812153 -41.233924 11.912818 4.659865 -3.325989 36.629527 8.258168 -12.409531 -63.117949 35.103172 -57.696579 -2.799869 18.318942 -25.355008 
18.729155 64.065788 94.012779 -63.234589 1.701256 77.801723 12.590437 4.309544 -9.745715 -4.117262 13.492205 46.117503 -2.789682 2.221417 -26.638173 nan nan nan -9.814257 -11.553220 0.495085 -0.200171 -15.237479 31.153602 5.872375 -2.343048 -22.183901 nan nan nan -0.795433 4.637130 13.894256 4.500028 -4.286763 6.731423 -0.241015 1.492907 0.206488 -0.117317 -15.684343 10.107834 3.988199 -26.852207 17.663009 -8.115315 -12.055866 -6.469722 -70.932187 -37.932112 30.488677 4.633432 -85.991534 20.404155 12.154110 -30.748928 -40.898173 11.969713 5.137864 -3.077682 35.975291 8.362242 -12.806976 -62.116529 34.799601 -56.673262 -2.243735 18.529861 -25.172600 
18.768284 64.189453 93.831932 -63.252563 1.497541 77.810724 13.815379 4.532498 -9.560779 -3.460603 13.581116 46.813904 -3.133693 2.609339 -26.854842 nan nan nan -10.140106 -11.816944 0.405559 -0.175739 -15.755376 31.246932 5.611134 -2.404891 -22.763477 nan nan nan -1.095409 4.640948 13.850901 4.659080 -4.406284 6.800548 -0.018588 1.492852 0.029256 0.019804 -15.390964 10.303995 4.034930 -26.982572 17.591039 -7.606161 -12.551661 -6.499429 -70.755661 -38.824505 30.406679 11.753655 -86.167863 13.466422 11.705855 -31.093355 -40.855376 12.096039 5.477116 -2.937604 35.375488 8.538128 -13.109074 -61.255828 34.663836 -55.791931 -1.812990 18.841872 -24.736360 
18.805193 64.315521 93.644188 -63.305729 1.357871 77.798001 15.095279 4.661071 -9.303931 -2.795339 13.585502 47.324555 -3.580582 3.190710 -26.865127 nan nan nan -10.374673 -11.989128 0.270691 -0.160340 -16.238523 31.505829 5.307549 -2.385354 -23.155084 nan nan nan -1.368965 4.541076 13.727225 4.813396 -4.562448 7.157585 0.162242 1.546081 -0.270050 0.273964 -15.001452 10.327184 4.001639 -27.147554 17.660019 -7.068329 -12.860305 -6.685500 -70.681267 -39.680633 30.417406 19.840541 -86.220505 5.705660 12.031204 -31.477223 -41.819851 12.246339 5.705250 -2.909620 34.779308 8.894241 -13.401312 -60.331210 34.817697 -54.643303 -1.814801 19.148148 -25.037771 
18.862658 64.427597 93.454651 -63.399553 1.244195 77.743644 16.347644 4.833103 -8.946294 -2.101435 13.435849 47.645351 -4.031377 3.872422 -26.613955 nan nan nan -10.574687 -12.140648 0.015893 -0.317525 -16.670380 32.058985 5.119666 -2.221038 -23.362879 nan nan nan -1.557967 4.425559 13.620806 4.913833 -4.631401 7.557701 0.319299 1.546571 -0.519231 0.552501 -14.629377 10.261685 3.898094 -27.271470 17.786266 -6.673344 -13.098262 -6.955371 -70.606610 -40.609053 30.425222 25.950116 -86.262554 -0.102185 12.275579 -31.448649 -42.629990 12.344227 5.837109 -2.936277 34.116862 9.272740 -13.757312 -59.260702 35.253259 -53.313330 -2.145261 19.239192 -26.066290 
18.962107 64.530769 93.264076 -63.469560 1.130701 77.662569 17.549841 4.883535 -8.526366 -1.412682 13.173356 47.791857 -4.295957 4.395631 -26.078764 nan nan nan -10.773528 -12.147679 -0.342798 -0.410014 -16.894556 32.824011 4.985659 -2.089378 -23.544053 nan nan nan -1.743572 4.536712 13.393010 5.078682 -4.538714 8.342241 0.555287 1.220208 -0.922010 0.831376 -14.415841 10.025723 3.695502 -27.306372 17.937115 -6.435698 -13.493453 -7.269832 -70.401575 -41.778742 30.479658 30.614520 -86.291396 -4.862392 11.525241 -31.458046 -41.421570 12.464001 5.956392 -3.081341 33.435109 9.597858 -13.884779 -58.353355 35.519584 -53.363865 -2.507598 19.354117 -26.247859 
19.050615 64.628265 93.082886 -63.622714 0.983250 77.846361 18.674006 4.960793 -8.297171 -0.860486 12.830151 47.749318 -4.337349 4.884852 -25.125834 nan nan nan -10.879475 -12.079281 -1.151318 -0.494437 -16.814351 33.834919 4.800281 -2.032909 -23.565793 nan nan nan -1.951591 3.962129 13.533651 5.036761 -4.613208 7.851154 0.561006 1.524702 -1.039785 0.749773 -14.158162 10.178804 3.639496 -27.033584 18.458621 -6.099369 -13.369681 -7.486874 -70.185680 -42.725615 30.488002 31.948071 -86.603796 -6.266986 10.772003 -31.831496 -40.582865 12.764301 6.212006 -2.843570 33.039724 10.033655 -13.917825 -57.995696 35.248417 -52.927355 -1.032121 19.685860 -25.068494 
